HIERARCHY
ROOT joint_Root
{
	OFFSET 0.0 0.0 0.0
	CHANNELS 6 Xposition Yposition Zposition Zrotation Xrotation Yrotation 
	JOINT Hips
	{
		OFFSET 4.5925 91.4895 -427.239
		CHANNELS 6 Xposition Yposition Zposition Zrotation Xrotation Yrotation 
		JOINT Spine
		{
			OFFSET 15.7357 0.0 0.0
			CHANNELS 6 Xposition Yposition Zposition Zrotation Xrotation Yrotation 
			JOINT Chest
			{
				OFFSET 8.98455 -0.406207 0.0
				CHANNELS 6 Xposition Yposition Zposition Zrotation Xrotation Yrotation 
				JOINT Neck
				{
					OFFSET 16.3773 0.0 0.0
					CHANNELS 6 Xposition Yposition Zposition Zrotation Xrotation Yrotation 
					JOINT Head
					{
						OFFSET 6.45672 0.0 0.0
						CHANNELS 6 Xposition Yposition Zposition Zrotation Xrotation Yrotation 
						End Site
						{
							OFFSET 0.0 0.0 0.0
						}
					}
				}
				JOINT Shoulder_L
				{
					OFFSET 12.9942 -0.242716 4.98039
					CHANNELS 6 Xposition Yposition Zposition Zrotation Xrotation Yrotation 
					JOINT UpperArm_L
					{
						OFFSET 5.34809 0.0 0.0
						CHANNELS 6 Xposition Yposition Zposition Zrotation Xrotation Yrotation 
						JOINT LowerArm_L
						{
							OFFSET 24.3286 1.87007e-05 0.0
							CHANNELS 6 Xposition Yposition Zposition Zrotation Xrotation Yrotation 
							JOINT Hand_L
							{
								OFFSET 22.2916 0.0 0.0
								CHANNELS 6 Xposition Yposition Zposition Zrotation Xrotation Yrotation 
								End Site
								{
									OFFSET 0.0 0.0 0.0
								}
							}
						}
					}
				}
				JOINT Shoulder_R
				{
					OFFSET 12.9945 -0.242716 -4.98039
					CHANNELS 6 Xposition Yposition Zposition Zrotation Xrotation Yrotation 
					JOINT UpperArm_R
					{
						OFFSET -5.34813 0.0 0.0
						CHANNELS 6 Xposition Yposition Zposition Zrotation Xrotation Yrotation 
						JOINT LowerArm_R
						{
							OFFSET -24.3289 0.000322201 0.0
							CHANNELS 6 Xposition Yposition Zposition Zrotation Xrotation Yrotation 
							JOINT Hand_R
							{
								OFFSET -22.2915 -0.000108084 0.0
								CHANNELS 6 Xposition Yposition Zposition Zrotation Xrotation Yrotation 
								End Site
								{
									OFFSET 0.0 0.0 0.0
								}
							}
						}
					}
				}
			}
		}
		JOINT UpperLeg_L
		{
			OFFSET -2.19248 -6.46944 0.0
			CHANNELS 6 Xposition Yposition Zposition Zrotation Xrotation Yrotation 
			JOINT LowerLeg_L
			{
				OFFSET 39.0811 0.0 -1.23785e-05
				CHANNELS 6 Xposition Yposition Zposition Zrotation Xrotation Yrotation 
				JOINT Foot_L
				{
					OFFSET 40.9854 0.0 -1.26872e-05
					CHANNELS 6 Xposition Yposition Zposition Zrotation Xrotation Yrotation 
					JOINT Toes_L
					{
						OFFSET 11.7543 0.0 0.0
						CHANNELS 6 Xposition Yposition Zposition Zrotation Xrotation Yrotation 
						End Site
						{
							OFFSET 0.0 0.0 0.0
						}
					}
				}
			}
		}
		JOINT UpperLeg_R
		{
			OFFSET -2.19251 6.46944 0.0
			CHANNELS 6 Xposition Yposition Zposition Zrotation Xrotation Yrotation 
			JOINT LowerLeg_R
			{
				OFFSET -39.0811 -0.00228153 -0.0401928
				CHANNELS 6 Xposition Yposition Zposition Zrotation Xrotation Yrotation 
				JOINT Foot_R
				{
					OFFSET -40.9854 0.0 0.0
					CHANNELS 6 Xposition Yposition Zposition Zrotation Xrotation Yrotation 
					JOINT Toes_R
					{
						OFFSET -11.7543 0.0 0.0
						CHANNELS 6 Xposition Yposition Zposition Zrotation Xrotation Yrotation 
						End Site
						{
							OFFSET 0.0 0.0 0.0
						}
					}
				}
			}
		}
	}
}
MOTION
Frames:	5
Frame Time:	0.0333333
0.000000 0.000000 0.000000 0.000000 0.000000 -0.000000 0.872152 90.686400 3.311390 89.075600 -7.223920 9.731460 15.735700 0.000005 -0.000001 84.154800 82.825900 -83.530800 8.984550 -0.406207 -0.000000 6.517470 -1.463580 1.330080 16.377300 -0.000001 -0.000001 6.556910 -4.106790 1.667510 6.456720 -0.000001 -0.000000 -11.250600 -3.626650 -0.368199 12.994200 -0.242716 4.980390 -92.103100 7.453540 -74.194000 5.348090 -0.000007 -0.000001 -60.016600 42.315100 -18.814400 24.328600 0.000019 0.000005 8.296590 21.591900 -21.616700 22.291600 -0.000001 0.000005 7.048870 5.282690 0.552778 12.994500 -0.242716 -4.980390 88.096800 11.865400 -80.819800 -5.348130 -0.000001 -0.000004 -63.470200 38.094900 -8.672830 -24.328900 0.000322 -0.000009 1.041960 3.418780 -16.977500 -22.291500 -0.000108 -0.000004 11.925300 5.387270 -2.528350 -2.192480 -6.469440 -0.000000 -175.014000 -13.541400 3.278310 39.081100 -0.000007 -0.000012 -0.127872 0.226413 29.456900 40.985400 -0.000006 -0.000013 0.327050 2.527590 -72.680300 11.754300 -0.000000 0.000003 -0.000077 -0.000819 -16.609100 -2.192510 6.469440 -0.000001 173.524000 15.299600 -176.685000 -39.081100 -0.002282 -0.040193 -0.189811 0.356373 28.453200 -40.985400 0.000008 0.000006 1.201510 12.956700 -71.421000 -11.754300 -0.000006 -0.000006 -0.002781 -0.038097 -18.122400
0.000000 0.000000 0.000000 0.000000 0.000000 -0.000000 0.870642 90.681100 3.249970 89.121500 -6.916600 9.947750 15.735700 0.000005 -0.000001 83.932500 82.758900 -83.285200 8.984550 -0.406207 -0.000000 6.645950 -1.532290 1.382100 16.377300 -0.000001 -0.000001 7.238010 -4.184960 1.699700 6.456720 -0.000001 -0.000000 -10.114000 -3.710580 -0.390031 12.994200 -0.242716 4.980390 -92.146600 7.484910 -73.947000 5.348090 -0.000007 -0.000001 -58.771400 41.444200 -19.820300 24.328600 0.000019 0.000005 8.464120 21.985800 -21.677200 22.291600 -0.000001 0.000005 6.891710 5.273690 0.798328 12.994500 -0.242716 -4.980390 88.081300 11.766700 -80.671000 -5.348130 -0.000001 -0.000004 -63.363100 37.429700 -8.261560 -24.328900 0.000322 -0.000009 1.066780 3.625430 -16.423800 -22.291500 -0.000108 -0.000004 11.942000 5.386490 -2.503220 -2.192480 -6.469440 -0.000000 -175.012000 -13.416900 3.385940 39.081100 -0.000007 -0.000012 -0.128640 0.227202 29.518300 40.985400 -0.000006 -0.000013 0.392091 2.739100 -72.648700 11.754300 -0.000000 0.000003 -0.000085 -0.000892 -16.611900 -2.192510 6.469440 -0.000001 173.384000 15.492900 -176.480000 -39.081100 -0.002282 -0.040193 -0.192320 0.360098 28.513500 -40.985400 0.000008 0.000006 1.184910 12.872300 -71.440100 -11.754300 -0.000006 -0.000006 -0.002843 -0.038811 -18.151500
0.000000 0.000000 0.000000 0.000000 0.000000 -0.000000 0.861858 90.680900 3.169300 89.176500 -6.525290 10.097200 15.735700 0.000005 -0.000001 83.856700 82.725500 -83.201200 8.984550 -0.406207 -0.000000 6.710520 -1.558020 1.401040 16.377300 -0.000001 -0.000001 8.107910 -4.337460 1.743510 6.456720 -0.000001 -0.000000 -8.939310 -3.863980 -0.469846 12.994200 -0.242716 4.980390 -92.192300 7.562580 -73.781900 5.348090 -0.000007 -0.000001 -56.731600 40.503800 -21.593200 24.328600 0.000019 0.000005 8.895640 22.629400 -22.135600 22.291600 -0.000001 0.000005 6.509470 5.268520 0.938523 12.994500 -0.242716 -4.980390 88.059400 11.686100 -80.503400 -5.348130 -0.000001 -0.000004 -63.192500 36.724900 -7.886290 -24.328900 0.000322 -0.000009 1.096170 3.825140 -16.018600 -22.291500 -0.000108 -0.000004 11.956500 5.386600 -2.506770 -2.192480 -6.469440 -0.000000 -175.057000 -13.202300 3.390290 39.081100 -0.000007 -0.000012 -0.128848 0.227043 29.575300 40.985400 -0.000006 -0.000013 0.446796 2.925510 -72.586800 11.754300 -0.000000 0.000003 -0.000075 -0.000800 -16.608400 -2.192510 6.469440 -0.000001 173.242000 15.805600 -176.343000 -39.081100 -0.002282 -0.040193 -0.193304 0.361049 28.570700 -40.985400 0.000008 0.000006 1.188990 12.814700 -71.448600 -11.754300 -0.000006 -0.000006 -0.002829 -0.038650 -18.144900
0.000000 0.000000 0.000000 0.000000 0.000000 -0.000000 0.835661 90.682200 3.056020 89.237200 -6.089330 10.308100 15.735700 0.000005 -0.000001 83.882600 82.684900 -83.226100 8.984550 -0.406207 -0.000000 6.791980 -1.559580 1.404130 16.377300 -0.000001 -0.000001 9.071610 -4.493010 1.769480 6.456720 -0.000001 -0.000000 -7.554700 -4.052640 -0.654496 12.994200 -0.242716 4.980390 -92.236500 7.634630 -73.618700 5.348090 -0.000007 -0.000001 -53.902100 39.457500 -24.210600 24.328600 0.000019 0.000005 9.318180 22.950900 -22.820500 22.291600 -0.000001 0.000005 5.683040 5.271850 0.848329 12.994500 -0.242716 -4.980390 88.044600 11.559400 -80.330900 -5.348130 -0.000001 -0.000004 -62.974600 36.239200 -7.640140 -24.328900 0.000322 -0.000009 1.081480 3.858760 -15.683800 -22.291500 -0.000108 -0.000004 11.950800 5.385970 -2.486810 -2.192480 -6.469440 -0.000000 -175.082000 -13.000200 3.433350 39.081100 -0.000007 -0.000012 -0.126401 0.222162 29.638300 40.985400 -0.000006 -0.000013 0.498019 3.135240 -72.505100 11.754300 -0.000000 0.000003 -0.000082 -0.000871 -16.611100 -2.192510 6.469440 -0.000001 173.095000 16.126300 -176.163000 -39.081100 -0.002282 -0.040193 -0.194294 0.361805 28.641300 -40.985400 0.000008 0.000006 1.207690 12.736000 -71.452800 -11.754300 -0.000006 -0.000006 -0.002746 -0.037696 -18.106100
0.000000 0.000000 0.000000 0.000000 0.000000 -0.000000 0.802209 90.686400 2.922860 89.332700 -5.601200 10.534900 15.735700 0.000005 -0.000001 83.962700 82.641700 -83.327100 8.984550 -0.406207 -0.000000 6.879810 -1.547600 1.362820 16.377300 -0.000001 -0.000001 10.127600 -4.663600 1.741340 6.456720 -0.000001 -0.000000 -5.994140 -4.268000 -0.872408 12.994200 -0.242716 4.980390 -92.254700 7.643660 -73.511000 5.348090 -0.000007 -0.000001 -50.895500 37.767700 -27.298000 24.328600 0.000019 0.000005 9.817950 23.192800 -23.721000 22.291600 -0.000001 0.000005 5.051120 5.266730 0.986606 12.994500 -0.242716 -4.980390 88.039300 11.424500 -80.194400 -5.348130 -0.000001 -0.000004 -62.718100 35.842900 -7.552970 -24.328900 0.000322 -0.000009 1.102340 4.014200 -15.383200 -22.291500 -0.000108 -0.000004 12.039000 5.386030 -2.488950 -2.192480 -6.469440 -0.000000 -175.141000 -12.776700 3.476580 39.081100 -0.000007 -0.000012 -0.126152 0.221334 29.681600 40.985400 -0.000006 -0.000013 0.559342 3.384960 -72.393300 11.754300 -0.000000 0.000003 -0.000077 -0.000819 -16.609100 -2.192510 6.469440 -0.000001 172.927000 16.407100 -175.985000 -39.081100 -0.002282 -0.040193 -0.196563 0.364710 28.723800 -40.985400 0.000008 0.000006 1.208170 12.575300 -71.454900 -11.754300 -0.000006 -0.000006 -0.002831 -0.038676 -18.145900
